<svg width="1005" height="226" viewBox="0 0 1005 226" fill="none" xmlns="http://www.w3.org/2000/svg">
<g filter="url(#filter0_g_31_256)">
<path d="M47.68 113.262C47.68 123.749 49.858 131.896 54.214 137.704C58.7313 143.351 65.104 146.174 73.332 146.174C81.56 146.174 87.852 143.351 92.208 137.704C96.564 131.896 98.742 123.749 98.742 113.262C98.742 102.614 96.4833 94.3862 91.966 88.5782C87.61 82.7702 81.3986 79.8662 73.332 79.8662C65.2653 79.8662 58.9733 82.7702 54.456 88.5782C49.9386 94.3862 47.68 102.614 47.68 113.262ZM45.018 46.7122L45.986 68.0082C50.0193 59.7802 55.7466 53.5689 63.168 49.3742C70.7506 45.1795 79.382 43.0822 89.062 43.0822C97.6126 43.0822 105.357 44.7762 112.294 48.1642C119.393 51.3909 125.362 56.0695 130.202 62.2002C135.203 68.3309 139.075 75.7522 141.818 84.4642C144.561 93.0149 145.932 102.534 145.932 113.02C145.932 123.507 144.561 133.106 141.818 141.818C139.075 150.369 135.203 157.71 130.202 163.84C125.362 169.81 119.393 174.488 112.294 177.876C105.357 181.103 97.6126 182.716 89.062 182.716C79.5433 182.716 71.0733 180.619 63.652 176.424C56.392 172.23 50.6646 166.18 46.47 158.274V223.614H1.69995V46.7122H45.018Z" fill="#191500"/>
<path d="M198.321 112.778C198.321 123.265 200.58 131.493 205.097 137.462C209.615 143.27 216.068 146.174 224.457 146.174C232.847 146.174 239.3 143.27 243.817 137.462C248.335 131.493 250.593 123.265 250.593 112.778C250.593 102.453 248.335 94.3862 243.817 88.5782C239.3 82.6089 232.847 79.6242 224.457 79.6242C216.068 79.6242 209.615 82.6089 205.097 88.5782C200.58 94.3862 198.321 102.453 198.321 112.778ZM150.889 112.778C150.889 102.292 152.664 92.7729 156.213 84.2222C159.763 75.6715 164.683 68.4115 170.975 62.4422C177.429 56.3115 185.173 51.5522 194.207 48.1642C203.242 44.7762 213.325 43.0822 224.457 43.0822C235.589 43.0822 245.592 44.7762 254.465 48.1642C263.5 51.5522 271.244 56.3115 277.697 62.4422C284.151 68.4115 289.071 75.6715 292.459 84.2222C296.009 92.7729 297.783 102.292 297.783 112.778C297.783 123.265 296.009 132.864 292.459 141.576C289.071 150.127 284.151 157.468 277.697 163.598C271.244 169.729 263.5 174.488 254.465 177.876C245.592 181.103 235.589 182.716 224.457 182.716C213.325 182.716 203.242 181.103 194.207 177.876C185.173 174.488 177.429 169.729 170.975 163.598C164.683 157.468 159.763 150.127 156.213 141.576C152.664 132.864 150.889 123.265 150.889 112.778Z" fill="#191500"/>
<path d="M401.223 112.778C401.223 102.292 398.964 94.2249 394.447 88.5782C390.091 82.7702 383.799 79.8662 375.571 79.8662C367.504 79.8662 361.293 82.6895 356.937 88.3362C352.581 93.9829 350.403 102.05 350.403 112.536C350.403 123.184 352.581 131.493 356.937 137.462C361.454 143.27 367.746 146.174 375.813 146.174C383.88 146.174 390.091 143.27 394.447 137.462C398.964 131.493 401.223 123.265 401.223 112.778ZM403.885 179.328L403.159 157.79C398.964 166.018 393.076 172.23 385.493 176.424C378.072 180.619 369.521 182.716 359.841 182.716C351.29 182.716 343.466 181.103 336.367 177.876C329.43 174.488 323.46 169.729 318.459 163.598C313.619 157.468 309.828 150.127 307.085 141.576C304.342 133.026 302.971 123.426 302.971 112.778C302.971 102.292 304.342 92.7729 307.085 84.2222C309.828 75.5102 313.619 68.1695 318.459 62.2002C323.46 56.0695 329.43 51.3909 336.367 48.1642C343.466 44.7762 351.29 43.0822 359.841 43.0822C369.521 43.0822 377.991 45.1795 385.251 49.3742C392.511 53.5689 398.238 59.6189 402.433 67.5242V1.7002H447.203V179.328H403.885Z" fill="#191500"/>
<path d="M552.832 102.13C551.542 94.3862 548.799 88.4169 544.604 84.2222C540.41 80.0275 534.844 77.9302 527.906 77.9302C521.13 77.9302 515.564 80.0275 511.208 84.2222C506.852 88.4169 504.029 94.3862 502.738 102.13H552.832ZM454.58 112.778C454.58 102.292 456.355 92.7729 459.904 84.2222C463.454 75.6715 468.374 68.4115 474.666 62.4422C481.12 56.3115 488.864 51.5522 497.898 48.1642C506.933 44.7762 516.936 43.0822 527.906 43.0822C539.038 43.0822 548.96 44.7762 557.672 48.1642C566.546 51.5522 574.048 56.3115 580.178 62.4422C586.309 68.5729 590.988 75.9942 594.214 84.7062C597.441 93.2569 599.054 102.776 599.054 113.262V123.184H502.738C504.029 130.928 506.772 136.978 510.966 141.334C515.322 145.69 520.969 147.868 527.906 147.868C538.07 147.868 545.25 143.351 549.444 134.316H598.57C594.376 149.32 586.067 161.178 573.644 169.89C561.383 178.441 546.137 182.716 527.906 182.716C516.936 182.716 506.933 181.022 497.898 177.634C488.864 174.246 481.12 169.487 474.666 163.356C468.374 157.226 463.454 149.885 459.904 141.334C456.355 132.784 454.58 123.265 454.58 112.778Z" fill="#191500"/>
<path d="M652.226 113.262C652.226 123.749 654.404 131.896 658.76 137.704C663.278 143.351 669.65 146.174 677.878 146.174C686.106 146.174 692.398 143.351 696.754 137.704C701.11 131.896 703.288 123.749 703.288 113.262C703.288 102.614 701.03 94.3862 696.512 88.5782C692.156 82.7702 685.945 79.8662 677.878 79.8662C669.812 79.8662 663.52 82.7702 659.002 88.5782C654.485 94.3862 652.226 102.614 652.226 113.262ZM649.564 46.7122L650.532 68.0082C654.566 59.7802 660.293 53.5689 667.714 49.3742C675.297 45.1795 683.928 43.0822 693.608 43.0822C702.159 43.0822 709.903 44.7762 716.84 48.1642C723.939 51.3909 729.908 56.0695 734.748 62.2002C739.75 68.3309 743.622 75.7522 746.364 84.4642C749.107 93.0149 750.478 102.534 750.478 113.02C750.478 123.507 749.107 133.106 746.364 141.818C743.622 150.369 739.75 157.71 734.748 163.84C729.908 169.81 723.939 174.488 716.84 177.876C709.903 181.103 702.159 182.716 693.608 182.716C684.09 182.716 675.62 180.619 668.198 176.424C660.938 172.23 655.211 166.18 651.016 158.274V223.614H606.246V46.7122H649.564Z" fill="#191500"/>
<path d="M853.687 102.13C852.397 94.3862 849.654 88.4169 845.459 84.2222C841.265 80.0275 835.699 77.9302 828.761 77.9302C821.985 77.9302 816.419 80.0275 812.063 84.2222C807.707 88.4169 804.884 94.3862 803.593 102.13H853.687ZM755.435 112.778C755.435 102.292 757.21 92.7729 760.759 84.2222C764.309 75.6715 769.229 68.4115 775.521 62.4422C781.975 56.3115 789.719 51.5522 798.753 48.1642C807.788 44.7762 817.791 43.0822 828.761 43.0822C839.893 43.0822 849.815 44.7762 858.527 48.1642C867.401 51.5522 874.903 56.3115 881.033 62.4422C887.164 68.5729 891.843 75.9942 895.069 84.7062C898.296 93.2569 899.909 102.776 899.909 113.262V123.184H803.593C804.884 130.928 807.627 136.978 811.821 141.334C816.177 145.69 821.824 147.868 828.761 147.868C838.925 147.868 846.105 143.351 850.299 134.316H899.425C895.231 149.32 886.922 161.178 874.499 169.89C862.238 178.441 846.992 182.716 828.761 182.716C817.791 182.716 807.788 181.022 798.753 177.634C789.719 174.246 781.975 169.487 775.521 163.356C769.229 157.226 764.309 149.885 760.759 141.334C757.21 132.784 755.435 123.265 755.435 112.778Z" fill="#191500"/>
<path d="M916.895 83.2542H898.987V46.4702H916.895V15.2522H963.601V46.4702H1002.56V83.2542H963.601V124.394C963.601 128.428 964.165 131.735 965.295 134.316C966.424 136.898 967.957 138.914 969.893 140.366C971.829 141.657 974.087 142.544 976.669 143.028C979.411 143.512 982.396 143.754 985.623 143.754C991.108 143.754 996.755 143.27 1002.56 142.302V178.844C990.301 181.426 979.169 182.716 969.167 182.716C951.581 182.716 938.433 178.441 929.721 169.89C921.17 161.178 916.895 147.062 916.895 127.54V83.2542Z" fill="#191500"/>
</g>
<defs>
<filter id="filter0_g_31_256" x="-4.88758e-05" y="0.000195265" width="1004.26" height="225.314" filterUnits="userSpaceOnUse" color-interpolation-filters="sRGB">
<feFlood flood-opacity="0" result="BackgroundImageFix"/>
<feBlend mode="normal" in="SourceGraphic" in2="BackgroundImageFix" result="shape"/>
<feTurbulence type="fractalNoise" baseFrequency="0.028985507786273956 0.028985507786273956" numOctaves="3" seed="2180" />
<feDisplacementMap in="shape" scale="3.4000000953674316" xChannelSelector="R" yChannelSelector="G" result="displacedImage" width="100%" height="100%" />
<feMerge result="effect1_texture_31_256">
<feMergeNode in="displacedImage"/>
</feMerge>
</filter>
</defs>
</svg>
